+ filenameToUse=/home/horvathandras/vatic/vatic/public/videouploads/DJI_0041_30m_szarvasragas_homokmegy_20180603_napos_napraforgo_T3.avi
+ filenameNoDot=DJI_0041_30m_szarvasragas_homokmegy_20180603_napos_napraforgo_T3
+ FullUploadPath=/home/horvathandras/vatic/vatic/public/videouploads/DJI_0041_30m_szarvasragas_homokmegy_20180603_napos_napraforgo_T3.avi
+ VideoDataDir=/home/horvathandras/vatic/vatic/videos
+ AvailableObjectTypes='PozitívROI NegatívROI Túrás ~Friss ~1-2Hetes ~Régebbi ~Egyéb1 ~Egyéb2 ~Egyéb3 Rágás ~Friss ~1-2Hetes ~Régebbi ~Egyéb1 ~Egyéb2 ~Egyéb3 Törés ~Friss ~1-2Hetes ~Régebbi ~Egyéb1 ~Egyéb2 ~Egyéb3 Taposás ~Friss ~1-2Hetes ~Régebbi ~Egyéb1 ~Egyéb2 ~Egyéb3 EgészségesNövény Egyéb1 Egyéb2 Egyéb3 Egyéb4 Egyéb5 Bizonytalan Művelőút Gktaposás Vetőhiba Széldöntés Jégkár Belvíz Aszály Erózió EgyszikűGyom KétszikűGyom EgyébNövvédelmiPR'
++ dirname /home/horvathandras/vatic/vatic/vatic_publisher.sh
+ cd /home/horvathandras/vatic/vatic
+ touch /home/horvathandras/vatic/vatic/public/videouploads/DJI_0041_30m_szarvasragas_homokmegy_20180603_napos_napraforgo_T3.avi
+ chmod 744 /home/horvathandras/vatic/vatic/public/videouploads/DJI_0041_30m_szarvasragas_homokmegy_20180603_napos_napraforgo_T3.avi
+ mkdir /home/horvathandras/vatic/vatic/videos/DJI_0041_30m_szarvasragas_homokmegy_20180603_napos_napraforgo_T3
+ turkic extract /home/horvathandras/vatic/vatic/public/videouploads/DJI_0041_30m_szarvasragas_homokmegy_20180603_napos_napraforgo_T3.avi /home/horvathandras/vatic/vatic/videos/DJI_0041_30m_szarvasragas_homokmegy_20180603_napos_napraforgo_T3 --no-resize
ffmpeg version 2.8.14-0ubuntu0.16.04.1 Copyright (c) 2000-2018 the FFmpeg developers
  built with gcc 5.4.0 (Ubuntu 5.4.0-6ubuntu1~16.04.9) 20160609
  configuration: --prefix=/usr --extra-version=0ubuntu0.16.04.1 --build-suffix=-ffmpeg --toolchain=hardened --libdir=/usr/lib/x86_64-linux-gnu --incdir=/usr/include/x86_64-linux-gnu --cc=cc --cxx=g++ --enable-gpl --enable-shared --disable-stripping --disable-decoder=libopenjpeg --disable-decoder=libschroedinger --enable-avresample --enable-avisynth --enable-gnutls --enable-ladspa --enable-libass --enable-libbluray --enable-libbs2b --enable-libcaca --enable-libcdio --enable-libflite --enable-libfontconfig --enable-libfreetype --enable-libfribidi --enable-libgme --enable-libgsm --enable-libmodplug --enable-libmp3lame --enable-libopenjpeg --enable-libopus --enable-libpulse --enable-librtmp --enable-libschroedinger --enable-libshine --enable-libsnappy --enable-libsoxr --enable-libspeex --enable-libssh --enable-libtheora --enable-libtwolame --enable-libvorbis --enable-libvpx --enable-libwavpack --enable-libwebp --enable-libx265 --enable-libxvid --enable-libzvbi --enable-openal --enable-opengl --enable-x11grab --enable-libdc1394 --enable-libiec61883 --enable-libzmq --enable-frei0r --enable-libx264 --enable-libopencv
  libavutil      54. 31.100 / 54. 31.100
  libavcodec     56. 60.100 / 56. 60.100
  libavformat    56. 40.101 / 56. 40.101
  libavdevice    56.  4.100 / 56.  4.100
  libavfilter     5. 40.101 /  5. 40.101
  libavresample   2.  1.  0 /  2.  1.  0
  libswscale      3.  1.101 /  3.  1.101
  libswresample   1.  2.101 /  1.  2.101
  libpostproc    53.  3.100 / 53.  3.100
Input #0, mov,mp4,m4a,3gp,3g2,mj2, from '/home/horvathandras/vatic/vatic/public/videouploads/DJI_0041_30m_szarvasragas_homokmegy_20180603_napos_napraforgo_T3.avi':
  Metadata:
    major_brand     : qt  
    minor_version   : 537986816
    compatible_brands: qt  
    creation_time   : 2018-06-03 08:32:28
    location        : +46.519256+19.145903+30.100
    location-{    : +46.519256+19.145903+30.100
    comment         : DE=None, Mode=P, DSW=0001
  Duration: 00:00:20.72, start: 0.000000, bitrate: 100818 kb/s
    Stream #0:0(eng): Video: h264 (High) (avc1 / 0x31637661), yuv420p(tv, bt709), 4096x2160 [SAR 1:1 DAR 256:135], 100810 kb/s, 50 fps, 50 tbr, 50k tbn, 100 tbc (default)
    Metadata:
      creation_time   : 2018-06-03 08:32:28
      handler_name    : DJI.AVC
      encoder         : AVC encoder
    Stream #0:1(eng): Data: none (priv / 0x76697270), 4 kb/s
    Metadata:
      creation_time   : 2018-06-03 08:32:28
      handler_name    : DJI.Meta
Please use -b:a or -b:v, -b is ambiguous
[swscaler @ 0x130bd60] deprecated pixel format used, make sure you did set range correctly
Output #0, image2, to '/tmp/pyvision-ffmpeg-26165164/%d.jpg':
  Metadata:
    major_brand     : qt  
    minor_version   : 537986816
    compatible_brands: qt  
    comment         : DE=None, Mode=P, DSW=0001
    location        : +46.519256+19.145903+30.100
    location-{    : +46.519256+19.145903+30.100
    encoder         : Lavf56.40.101
    Stream #0:0(eng): Video: mjpeg, yuvj420p(pc), 4096x2160 [SAR 1:1 DAR 256:135], q=2-31, 10000 kb/s, 50 fps, 50 tbn, 50 tbc (default)
    Metadata:
      creation_time   : 2018-06-03 08:32:28
      handler_name    : DJI.AVC
      encoder         : Lavc56.60.100 mjpeg
Stream mapping:
  Stream #0:0 -> #0:0 (h264 (native) -> mjpeg (native))
Press [q] to stop, [?] for help
frame=    1 fps=0.8 q=20.0 size=N/A time=00:00:00.02 bitrate=N/A    frame=    4 fps=2.1 q=24.8 size=N/A time=00:00:00.08 bitrate=N/A    frame=    7 fps=2.8 q=24.8 size=N/A time=00:00:00.14 bitrate=N/A    frame=   10 fps=3.1 q=24.8 size=N/A time=00:00:00.20 bitrate=N/A    frame=   14 fps=3.7 q=24.8 size=N/A time=00:00:00.28 bitrate=N/A    frame=   17 fps=3.8 q=24.8 size=N/A time=00:00:00.34 bitrate=N/A    frame=   19 fps=3.8 q=24.8 size=N/A time=00:00:00.38 bitrate=N/A    frame=   22 fps=3.8 q=24.8 size=N/A time=00:00:00.44 bitrate=N/A    frame=   25 fps=3.9 q=24.8 size=N/A time=00:00:00.50 bitrate=N/A    frame=   28 fps=4.1 q=24.8 size=N/A time=00:00:00.56 bitrate=N/A    frame=   31 fps=4.2 q=24.8 size=N/A time=00:00:00.62 bitrate=N/A    frame=   33 fps=4.2 q=24.8 size=N/A time=00:00:00.66 bitrate=N/A    frame=   37 fps=4.3 q=24.8 size=N/A time=00:00:00.74 bitrate=N/A    frame=   40 fps=4.3 q=24.8 size=N/A time=00:00:00.80 bitrate=N/A    frame=   43 fps=4.3 q=24.8 size=N/A time=00:00:00.86 bitrate=N/A    frame=   45 fps=4.3 q=24.8 size=N/A time=00:00:00.90 bitrate=N/A    frame=   47 fps=4.3 q=24.8 size=N/A time=00:00:00.94 bitrate=N/A    frame=   50 fps=4.3 q=24.8 size=N/A time=00:00:01.00 bitrate=N/A    frame=   53 fps=4.4 q=24.8 size=N/A time=00:00:01.06 bitrate=N/A    frame=   56 fps=4.4 q=24.8 size=N/A time=00:00:01.12 bitrate=N/A    frame=   59 fps=4.4 q=24.8 size=N/A time=00:00:01.18 bitrate=N/A    frame=   62 fps=4.4 q=24.8 size=N/A time=00:00:01.24 bitrate=N/A    frame=   66 fps=4.5 q=24.8 size=N/A time=00:00:01.32 bitrate=N/A    frame=   69 fps=4.5 q=24.8 size=N/A time=00:00:01.38 bitrate=N/A    frame=   72 fps=4.5 q=24.8 size=N/A time=00:00:01.44 bitrate=N/A    frame=   75 fps=4.6 q=24.8 size=N/A time=00:00:01.50 bitrate=N/A    frame=   78 fps=4.6 q=24.8 size=N/A time=00:00:01.56 bitrate=N/A    frame=   81 fps=4.6 q=24.8 size=N/A time=00:00:01.62 bitrate=N/A    frame=   84 fps=4.6 q=24.8 size=N/A time=00:00:01.68 bitrate=N/A    frame=   87 fps=4.6 q=24.8 size=N/A time=00:00:01.74 bitrate=N/A    frame=   90 fps=4.6 q=24.8 size=N/A time=00:00:01.80 bitrate=N/A    frame=   93 fps=4.6 q=24.8 size=N/A time=00:00:01.86 bitrate=N/A    frame=   95 fps=4.6 q=24.8 size=N/A time=00:00:01.90 bitrate=N/A    frame=   99 fps=4.6 q=24.8 size=N/A time=00:00:01.98 bitrate=N/A    frame=  102 fps=4.6 q=24.8 size=N/A time=00:00:02.04 bitrate=N/A    frame=  106 fps=4.6 q=24.8 size=N/A time=00:00:02.12 bitrate=N/A    frame=  109 fps=4.6 q=24.8 size=N/A time=00:00:02.18 bitrate=N/A    frame=  112 fps=4.7 q=24.8 size=N/A time=00:00:02.24 bitrate=N/A    frame=  115 fps=4.7 q=24.8 size=N/A time=00:00:02.30 bitrate=N/A    frame=  118 fps=4.7 q=24.8 size=N/A time=00:00:02.36 bitrate=N/A    frame=  121 fps=4.6 q=24.8 size=N/A time=00:00:02.42 bitrate=N/A    frame=  124 fps=4.6 q=24.8 size=N/A time=00:00:02.48 bitrate=N/A    frame=  127 fps=4.6 q=24.8 size=N/A time=00:00:02.54 bitrate=N/A    frame=  130 fps=4.7 q=24.8 size=N/A time=00:00:02.60 bitrate=N/A    frame=  133 fps=4.7 q=24.8 size=N/A time=00:00:02.66 bitrate=N/A    frame=  136 fps=4.7 q=24.8 size=N/A time=00:00:02.72 bitrate=N/A    frame=  140 fps=4.7 q=24.8 size=N/A time=00:00:02.80 bitrate=N/A    frame=  143 fps=4.7 q=24.8 size=N/A time=00:00:02.86 bitrate=N/A    frame=  146 fps=4.7 q=24.8 size=N/A time=00:00:02.92 bitrate=N/A    frame=  149 fps=4.7 q=24.8 size=N/A time=00:00:02.98 bitrate=N/A    frame=  152 fps=4.7 q=24.8 size=N/A time=00:00:03.04 bitrate=N/A    frame=  155 fps=4.7 q=24.8 size=N/A time=00:00:03.10 bitrate=N/A    frame=  158 fps=4.7 q=24.8 size=N/A time=00:00:03.16 bitrate=N/A    frame=  161 fps=4.8 q=24.8 size=N/A time=00:00:03.22 bitrate=N/A    frame=  165 fps=4.8 q=24.8 size=N/A time=00:00:03.30 bitrate=N/A    frame=  168 fps=4.8 q=24.8 size=N/A time=00:00:03.36 bitrate=N/A    frame=  171 fps=4.8 q=24.8 size=N/A time=00:00:03.42 bitrate=N/A    frame=  173 fps=4.8 q=24.8 size=N/A time=00:00:03.46 bitrate=N/A    frame=  176 fps=4.8 q=24.8 size=N/A time=00:00:03.52 bitrate=N/A    frame=  178 fps=4.7 q=24.8 size=N/A time=00:00:03.56 bitrate=N/A    frame=  181 fps=4.7 q=24.8 size=N/A time=00:00:03.62 bitrate=N/A    frame=  184 fps=4.7 q=24.8 size=N/A time=00:00:03.68 bitrate=N/A    frame=  187 fps=4.7 q=24.8 size=N/A time=00:00:03.74 bitrate=N/A    frame=  191 fps=4.8 q=24.8 size=N/A time=00:00:03.82 bitrate=N/A    frame=  194 fps=4.8 q=24.8 size=N/A time=00:00:03.88 bitrate=N/A    frame=  198 fps=4.8 q=24.8 size=N/A time=00:00:03.96 bitrate=N/A    frame=  201 fps=4.8 q=24.8 size=N/A time=00:00:04.02 bitrate=N/A    frame=  204 fps=4.8 q=24.8 size=N/A time=00:00:04.08 bitrate=N/A    frame=  207 fps=4.8 q=24.8 size=N/A time=00:00:04.14 bitrate=N/A    frame=  210 fps=4.8 q=24.8 size=N/A time=00:00:04.20 bitrate=N/A    frame=  214 fps=4.8 q=24.8 size=N/A time=00:00:04.28 bitrate=N/A    frame=  217 fps=4.8 q=24.8 size=N/A time=00:00:04.34 bitrate=N/A    frame=  220 fps=4.8 q=24.8 size=N/A time=00:00:04.40 bitrate=N/A    frame=  223 fps=4.8 q=24.8 size=N/A time=00:00:04.46 bitrate=N/A    frame=  226 fps=4.8 q=24.8 size=N/A time=00:00:04.52 bitrate=N/A    frame=  229 fps=4.8 q=24.8 size=N/A time=00:00:04.58 bitrate=N/A    frame=  231 fps=4.8 q=24.8 size=N/A time=00:00:04.62 bitrate=N/A    frame=  234 fps=4.8 q=24.8 size=N/A time=00:00:04.68 bitrate=N/A    frame=  238 fps=4.8 q=24.8 size=N/A time=00:00:04.76 bitrate=N/A    frame=  240 fps=4.8 q=24.8 size=N/A time=00:00:04.80 bitrate=N/A    frame=  242 fps=4.8 q=24.8 size=N/A time=00:00:04.84 bitrate=N/A    frame=  245 fps=4.8 q=24.8 size=N/A time=00:00:04.90 bitrate=N/A    frame=  248 fps=4.8 q=24.8 size=N/A time=00:00:04.96 bitrate=N/A    frame=  251 fps=4.8 q=24.8 size=N/A time=00:00:05.02 bitrate=N/A    frame=  254 fps=4.8 q=24.8 size=N/A time=00:00:05.08 bitrate=N/A    frame=  256 fps=4.8 q=24.8 size=N/A time=00:00:05.12 bitrate=N/A    frame=  259 fps=4.8 q=24.8 size=N/A time=00:00:05.18 bitrate=N/A    frame=  261 fps=4.8 q=24.8 size=N/A time=00:00:05.22 bitrate=N/A    frame=  264 fps=4.8 q=24.8 size=N/A time=00:00:05.28 bitrate=N/A    frame=  267 fps=4.8 q=24.8 size=N/A time=00:00:05.34 bitrate=N/A    frame=  270 fps=4.8 q=24.8 size=N/A time=00:00:05.40 bitrate=N/A    frame=  273 fps=4.8 q=24.8 size=N/A time=00:00:05.46 bitrate=N/A    frame=  276 fps=4.8 q=24.8 size=N/A time=00:00:05.52 bitrate=N/A    frame=  279 fps=4.8 q=24.8 size=N/A time=00:00:05.58 bitrate=N/A    frame=  282 fps=4.8 q=24.8 size=N/A time=00:00:05.64 bitrate=N/A    frame=  285 fps=4.8 q=24.8 size=N/A time=00:00:05.70 bitrate=N/A    frame=  288 fps=4.8 q=24.8 size=N/A time=00:00:05.76 bitrate=N/A    frame=  291 fps=4.8 q=24.8 size=N/A time=00:00:05.82 bitrate=N/A    frame=  294 fps=4.8 q=24.8 size=N/A time=00:00:05.88 bitrate=N/A    frame=  297 fps=4.8 q=24.8 size=N/A time=00:00:05.94 bitrate=N/A    frame=  300 fps=4.8 q=24.8 size=N/A time=00:00:06.00 bitrate=N/A    frame=  304 fps=4.8 q=24.8 size=N/A time=00:00:06.08 bitrate=N/A    frame=  307 fps=4.8 q=24.8 size=N/A time=00:00:06.14 bitrate=N/A    frame=  311 fps=4.8 q=24.8 size=N/A time=00:00:06.22 bitrate=N/A    frame=  313 fps=4.8 q=24.8 size=N/A time=00:00:06.26 bitrate=N/A    frame=  315 fps=4.8 q=24.8 size=N/A time=00:00:06.30 bitrate=N/A    frame=  317 fps=4.8 q=24.8 size=N/A time=00:00:06.34 bitrate=N/A    frame=  320 fps=4.8 q=24.8 size=N/A time=00:00:06.40 bitrate=N/A    frame=  322 fps=4.8 q=24.8 size=N/A time=00:00:06.44 bitrate=N/A    frame=  325 fps=4.8 q=24.8 size=N/A time=00:00:06.50 bitrate=N/A    frame=  328 fps=4.8 q=24.8 size=N/A time=00:00:06.56 bitrate=N/A    frame=  331 fps=4.8 q=24.8 size=N/A time=00:00:06.62 bitrate=N/A    frame=  335 fps=4.8 q=24.8 size=N/A time=00:00:06.70 bitrate=N/A    frame=  338 fps=4.8 q=24.8 size=N/A time=00:00:06.76 bitrate=N/A    frame=  341 fps=4.8 q=24.8 size=N/A time=00:00:06.82 bitrate=N/A    frame=  345 fps=4.8 q=24.8 size=N/A time=00:00:06.90 bitrate=N/A    frame=  348 fps=4.8 q=24.8 size=N/A time=00:00:06.96 bitrate=N/A    frame=  350 fps=4.8 q=24.8 size=N/A time=00:00:07.00 bitrate=N/A    frame=  353 fps=4.8 q=24.8 size=N/A time=00:00:07.06 bitrate=N/A    frame=  356 fps=4.8 q=24.8 size=N/A time=00:00:07.12 bitrate=N/A    frame=  358 fps=4.8 q=24.8 size=N/A time=00:00:07.16 bitrate=N/A    frame=  361 fps=4.8 q=24.8 size=N/A time=00:00:07.22 bitrate=N/A    frame=  365 fps=4.8 q=24.8 size=N/A time=00:00:07.30 bitrate=N/A    frame=  367 fps=4.8 q=24.8 size=N/A time=00:00:07.34 bitrate=N/A    frame=  370 fps=4.8 q=24.8 size=N/A time=00:00:07.40 bitrate=N/A    frame=  373 fps=4.8 q=24.8 size=N/A time=00:00:07.46 bitrate=N/A    frame=  375 fps=4.8 q=24.8 size=N/A time=00:00:07.50 bitrate=N/A    frame=  378 fps=4.8 q=24.8 size=N/A time=00:00:07.56 bitrate=N/A    frame=  381 fps=4.8 q=24.8 size=N/A time=00:00:07.62 bitrate=N/A    frame=  384 fps=4.8 q=24.8 size=N/A time=00:00:07.68 bitrate=N/A    frame=  388 fps=4.8 q=24.8 size=N/A time=00:00:07.76 bitrate=N/A    frame=  391 fps=4.8 q=24.8 size=N/A time=00:00:07.82 bitrate=N/A    frame=  394 fps=4.8 q=24.8 size=N/A time=00:00:07.88 bitrate=N/A    frame=  398 fps=4.8 q=24.8 size=N/A time=00:00:07.96 bitrate=N/A    frame=  401 fps=4.8 q=24.8 size=N/A time=00:00:08.02 bitrate=N/A    frame=  404 fps=4.8 q=24.8 size=N/A time=00:00:08.08 bitrate=N/A    frame=  407 fps=4.8 q=24.8 size=N/A time=00:00:08.14 bitrate=N/A    frame=  411 fps=4.8 q=24.8 size=N/A time=00:00:08.22 bitrate=N/A    frame=  414 fps=4.8 q=24.8 size=N/A time=00:00:08.28 bitrate=N/A    frame=  417 fps=4.8 q=24.8 size=N/A time=00:00:08.34 bitrate=N/A    frame=  419 fps=4.8 q=24.8 size=N/A time=00:00:08.38 bitrate=N/A    frame=  423 fps=4.8 q=24.8 size=N/A time=00:00:08.46 bitrate=N/A    frame=  426 fps=4.8 q=24.8 size=N/A time=00:00:08.52 bitrate=N/A    frame=  429 fps=4.8 q=24.8 size=N/A time=00:00:08.58 bitrate=N/A    frame=  432 fps=4.8 q=24.8 size=N/A time=00:00:08.64 bitrate=N/A    frame=  434 fps=4.8 q=24.8 size=N/A time=00:00:08.68 bitrate=N/A    frame=  437 fps=4.8 q=24.8 size=N/A time=00:00:08.74 bitrate=N/A    frame=  440 fps=4.8 q=24.8 size=N/A time=00:00:08.80 bitrate=N/A    frame=  443 fps=4.8 q=24.8 size=N/A time=00:00:08.86 bitrate=N/A    frame=  446 fps=4.8 q=24.8 size=N/A time=00:00:08.92 bitrate=N/A    frame=  449 fps=4.8 q=24.8 size=N/A time=00:00:08.98 bitrate=N/A    frame=  452 fps=4.8 q=24.8 size=N/A time=00:00:09.04 bitrate=N/A    frame=  454 fps=4.8 q=24.8 size=N/A time=00:00:09.08 bitrate=N/A    frame=  456 fps=4.8 q=24.8 size=N/A time=00:00:09.12 bitrate=N/A    frame=  458 fps=4.8 q=24.8 size=N/A time=00:00:09.16 bitrate=N/A    frame=  461 fps=4.8 q=24.8 size=N/A time=00:00:09.22 bitrate=N/A    frame=  464 fps=4.8 q=24.8 size=N/A time=00:00:09.28 bitrate=N/A    frame=  466 fps=4.8 q=24.8 size=N/A time=00:00:09.32 bitrate=N/A    frame=  469 fps=4.8 q=24.8 size=N/A time=00:00:09.38 bitrate=N/A    frame=  472 fps=4.8 q=24.8 size=N/A time=00:00:09.44 bitrate=N/A    frame=  475 fps=4.8 q=24.8 size=N/A time=00:00:09.50 bitrate=N/A    frame=  478 fps=4.8 q=24.8 size=N/A time=00:00:09.56 bitrate=N/A    frame=  481 fps=4.8 q=24.8 size=N/A time=00:00:09.62 bitrate=N/A    frame=  484 fps=4.8 q=24.8 size=N/A time=00:00:09.68 bitrate=N/A    frame=  486 fps=4.8 q=24.8 size=N/A time=00:00:09.72 bitrate=N/A    frame=  488 fps=4.8 q=24.8 size=N/A time=00:00:09.76 bitrate=N/A    frame=  490 fps=4.8 q=24.8 size=N/A time=00:00:09.80 bitrate=N/A    frame=  493 fps=4.8 q=24.8 size=N/A time=00:00:09.86 bitrate=N/A    frame=  495 fps=4.8 q=24.8 size=N/A time=00:00:09.90 bitrate=N/A    frame=  499 fps=4.8 q=24.8 size=N/A time=00:00:09.98 bitrate=N/A    frame=  501 fps=4.8 q=24.8 size=N/A time=00:00:10.02 bitrate=N/A    frame=  505 fps=4.8 q=24.8 size=N/A time=00:00:10.10 bitrate=N/A    frame=  508 fps=4.8 q=24.8 size=N/A time=00:00:10.16 bitrate=N/A    frame=  510 fps=4.8 q=24.8 size=N/A time=00:00:10.20 bitrate=N/A    frame=  512 fps=4.8 q=24.8 size=N/A time=00:00:10.24 bitrate=N/A    frame=  515 fps=4.8 q=24.8 size=N/A time=00:00:10.30 bitrate=N/A    frame=  518 fps=4.8 q=24.8 size=N/A time=00:00:10.36 bitrate=N/A    frame=  520 fps=4.8 q=24.8 size=N/A time=00:00:10.40 bitrate=N/A    frame=  523 fps=4.8 q=24.8 size=N/A time=00:00:10.46 bitrate=N/A    frame=  526 fps=4.8 q=24.8 size=N/A time=00:00:10.52 bitrate=N/A    frame=  529 fps=4.8 q=24.8 size=N/A time=00:00:10.58 bitrate=N/A    frame=  532 fps=4.8 q=24.8 size=N/A time=00:00:10.64 bitrate=N/A    frame=  535 fps=4.8 q=24.8 size=N/A time=00:00:10.70 bitrate=N/A    frame=  538 fps=4.8 q=24.8 size=N/A time=00:00:10.76 bitrate=N/A    frame=  540 fps=4.8 q=24.8 size=N/A time=00:00:10.80 bitrate=N/A    frame=  543 fps=4.8 q=24.8 size=N/A time=00:00:10.86 bitrate=N/A    frame=  546 fps=4.8 q=24.8 size=N/A time=00:00:10.92 bitrate=N/A    frame=  549 fps=4.8 q=24.8 size=N/A time=00:00:10.98 bitrate=N/A    frame=  552 fps=4.8 q=24.8 size=N/A time=00:00:11.04 bitrate=N/A    frame=  555 fps=4.8 q=24.8 size=N/A time=00:00:11.10 bitrate=N/A    frame=  558 fps=4.8 q=24.8 size=N/A time=00:00:11.16 bitrate=N/A    frame=  561 fps=4.7 q=24.8 size=N/A time=00:00:11.22 bitrate=N/A    frame=  564 fps=4.8 q=24.8 size=N/A time=00:00:11.28 bitrate=N/A    frame=  568 fps=4.8 q=24.8 size=N/A time=00:00:11.36 bitrate=N/A    frame=  571 fps=4.8 q=24.8 size=N/A time=00:00:11.42 bitrate=N/A    frame=  575 fps=4.8 q=24.8 size=N/A time=00:00:11.50 bitrate=N/A    frame=  578 fps=4.8 q=24.8 size=N/A time=00:00:11.56 bitrate=N/A    frame=  581 fps=4.8 q=24.8 size=N/A time=00:00:11.62 bitrate=N/A    frame=  584 fps=4.8 q=24.8 size=N/A time=00:00:11.68 bitrate=N/A    frame=  587 fps=4.8 q=24.8 size=N/A time=00:00:11.74 bitrate=N/A    frame=  590 fps=4.8 q=24.8 size=N/A time=00:00:11.80 bitrate=N/A    frame=  594 fps=4.8 q=24.8 size=N/A time=00:00:11.88 bitrate=N/A    frame=  597 fps=4.8 q=24.8 size=N/A time=00:00:11.94 bitrate=N/A    frame=  600 fps=4.8 q=24.8 size=N/A time=00:00:12.00 bitrate=N/A    frame=  604 fps=4.8 q=24.8 size=N/A time=00:00:12.08 bitrate=N/A    frame=  607 fps=4.8 q=24.8 size=N/A time=00:00:12.14 bitrate=N/A    frame=  610 fps=4.8 q=24.8 size=N/A time=00:00:12.20 bitrate=N/A    frame=  613 fps=4.8 q=24.8 size=N/A time=00:00:12.26 bitrate=N/A    frame=  616 fps=4.8 q=24.8 size=N/A time=00:00:12.32 bitrate=N/A    frame=  619 fps=4.8 q=24.8 size=N/A time=00:00:12.38 bitrate=N/A    frame=  622 fps=4.8 q=24.8 size=N/A time=00:00:12.44 bitrate=N/A    frame=  625 fps=4.8 q=24.8 size=N/A time=00:00:12.50 bitrate=N/A    frame=  627 fps=4.8 q=24.8 size=N/A time=00:00:12.54 bitrate=N/A    frame=  630 fps=4.8 q=24.8 size=N/A time=00:00:12.60 bitrate=N/A    frame=  632 fps=4.8 q=24.8 size=N/A time=00:00:12.64 bitrate=N/A    frame=  635 fps=4.8 q=24.8 size=N/A time=00:00:12.70 bitrate=N/A    frame=  639 fps=4.8 q=24.8 size=N/A time=00:00:12.78 bitrate=N/A    frame=  642 fps=4.8 q=24.8 size=N/A time=00:00:12.84 bitrate=N/A    frame=  645 fps=4.8 q=24.8 size=N/A time=00:00:12.90 bitrate=N/A    frame=  648 fps=4.8 q=24.8 size=N/A time=00:00:12.96 bitrate=N/A    frame=  651 fps=4.8 q=24.8 size=N/A time=00:00:13.02 bitrate=N/A    frame=  654 fps=4.8 q=24.8 size=N/A time=00:00:13.08 bitrate=N/A    frame=  657 fps=4.8 q=24.8 size=N/A time=00:00:13.14 bitrate=N/A    frame=  659 fps=4.8 q=24.8 size=N/A time=00:00:13.18 bitrate=N/A    frame=  661 fps=4.8 q=24.8 size=N/A time=00:00:13.22 bitrate=N/A    frame=  664 fps=4.8 q=24.8 size=N/A time=00:00:13.28 bitrate=N/A    frame=  667 fps=4.8 q=24.8 size=N/A time=00:00:13.34 bitrate=N/A    frame=  671 fps=4.8 q=24.8 size=N/A time=00:00:13.42 bitrate=N/A    frame=  675 fps=4.8 q=24.8 size=N/A time=00:00:13.50 bitrate=N/A    frame=  678 fps=4.8 q=24.8 size=N/A time=00:00:13.56 bitrate=N/A    frame=  681 fps=4.8 q=24.8 size=N/A time=00:00:13.62 bitrate=N/A    frame=  684 fps=4.8 q=24.8 size=N/A time=00:00:13.68 bitrate=N/A    frame=  687 fps=4.8 q=24.8 size=N/A time=00:00:13.74 bitrate=N/A    frame=  689 fps=4.8 q=24.8 size=N/A time=00:00:13.78 bitrate=N/A    frame=  692 fps=4.8 q=24.8 size=N/A time=00:00:13.84 bitrate=N/A    frame=  695 fps=4.8 q=24.8 size=N/A time=00:00:13.90 bitrate=N/A    frame=  698 fps=4.8 q=24.8 size=N/A time=00:00:13.96 bitrate=N/A    frame=  701 fps=4.8 q=24.8 size=N/A time=00:00:14.02 bitrate=N/A    frame=  704 fps=4.8 q=24.8 size=N/A time=00:00:14.08 bitrate=N/A    frame=  707 fps=4.8 q=24.8 size=N/A time=00:00:14.14 bitrate=N/A    frame=  710 fps=4.8 q=24.8 size=N/A time=00:00:14.20 bitrate=N/A    frame=  713 fps=4.8 q=24.8 size=N/A time=00:00:14.26 bitrate=N/A    frame=  715 fps=4.8 q=24.8 size=N/A time=00:00:14.30 bitrate=N/A    frame=  718 fps=4.8 q=24.8 size=N/A time=00:00:14.36 bitrate=N/A    frame=  720 fps=4.8 q=24.8 size=N/A time=00:00:14.40 bitrate=N/A    frame=  723 fps=4.8 q=24.8 size=N/A time=00:00:14.46 bitrate=N/A    frame=  726 fps=4.8 q=24.8 size=N/A time=00:00:14.52 bitrate=N/A    frame=  729 fps=4.8 q=24.8 size=N/A time=00:00:14.58 bitrate=N/A    frame=  731 fps=4.8 q=24.8 size=N/A time=00:00:14.62 bitrate=N/A    frame=  734 fps=4.8 q=24.8 size=N/A time=00:00:14.68 bitrate=N/A    frame=  737 fps=4.8 q=24.8 size=N/A time=00:00:14.74 bitrate=N/A    frame=  739 fps=4.8 q=24.8 size=N/A time=00:00:14.78 bitrate=N/A    frame=  742 fps=4.7 q=24.8 size=N/A time=00:00:14.84 bitrate=N/A    frame=  745 fps=4.7 q=24.8 size=N/A time=00:00:14.90 bitrate=N/A    frame=  747 fps=4.7 q=24.8 size=N/A time=00:00:14.94 bitrate=N/A    frame=  749 fps=4.7 q=24.8 size=N/A time=00:00:14.98 bitrate=N/A    frame=  751 fps=4.7 q=24.8 size=N/A time=00:00:15.02 bitrate=N/A    frame=  753 fps=4.7 q=24.8 size=N/A time=00:00:15.06 bitrate=N/A    frame=  756 fps=4.7 q=24.8 size=N/A time=00:00:15.12 bitrate=N/A    frame=  759 fps=4.7 q=24.8 size=N/A time=00:00:15.18 bitrate=N/A    frame=  761 fps=4.7 q=24.8 size=N/A time=00:00:15.22 bitrate=N/A    frame=  764 fps=4.7 q=24.8 size=N/A time=00:00:15.28 bitrate=N/A    frame=  766 fps=4.7 q=24.8 size=N/A time=00:00:15.32 bitrate=N/A    frame=  768 fps=4.7 q=24.8 size=N/A time=00:00:15.36 bitrate=N/A    frame=  770 fps=4.7 q=24.8 size=N/A time=00:00:15.40 bitrate=N/A    frame=  773 fps=4.7 q=24.8 size=N/A time=00:00:15.46 bitrate=N/A    frame=  775 fps=4.7 q=24.8 size=N/A time=00:00:15.50 bitrate=N/A    frame=  777 fps=4.7 q=24.8 size=N/A time=00:00:15.54 bitrate=N/A    frame=  779 fps=4.7 q=24.8 size=N/A time=00:00:15.58 bitrate=N/A    frame=  781 fps=4.7 q=24.8 size=N/A time=00:00:15.62 bitrate=N/A    frame=  783 fps=4.7 q=24.8 size=N/A time=00:00:15.66 bitrate=N/A    frame=  785 fps=4.7 q=24.8 size=N/A time=00:00:15.70 bitrate=N/A    frame=  787 fps=4.7 q=24.8 size=N/A time=00:00:15.74 bitrate=N/A    frame=  789 fps=4.7 q=24.8 size=N/A time=00:00:15.78 bitrate=N/A    frame=  792 fps=4.7 q=24.8 size=N/A time=00:00:15.84 bitrate=N/A    frame=  795 fps=4.7 q=24.8 size=N/A time=00:00:15.90 bitrate=N/A    frame=  798 fps=4.7 q=24.8 size=N/A time=00:00:15.96 bitrate=N/A    frame=  800 fps=4.7 q=24.8 size=N/A time=00:00:16.00 bitrate=N/A    frame=  803 fps=4.7 q=24.8 size=N/A time=00:00:16.06 bitrate=N/A    frame=  805 fps=4.7 q=24.8 size=N/A time=00:00:16.10 bitrate=N/A    frame=  807 fps=4.7 q=24.8 size=N/A time=00:00:16.14 bitrate=N/A    frame=  809 fps=4.6 q=24.8 size=N/A time=00:00:16.18 bitrate=N/A    frame=  812 fps=4.6 q=24.8 size=N/A time=00:00:16.24 bitrate=N/A    frame=  814 fps=4.6 q=24.8 size=N/A time=00:00:16.28 bitrate=N/A    frame=  817 fps=4.6 q=24.8 size=N/A time=00:00:16.34 bitrate=N/A    frame=  820 fps=4.6 q=24.8 size=N/A time=00:00:16.40 bitrate=N/A    frame=  823 fps=4.6 q=24.8 size=N/A time=00:00:16.46 bitrate=N/A    frame=  825 fps=4.6 q=24.8 size=N/A time=00:00:16.50 bitrate=N/A    frame=  828 fps=4.6 q=24.8 size=N/A time=00:00:16.56 bitrate=N/A    frame=  830 fps=4.6 q=24.8 size=N/A time=00:00:16.60 bitrate=N/A    frame=  832 fps=4.6 q=24.8 size=N/A time=00:00:16.64 bitrate=N/A    frame=  835 fps=4.6 q=24.8 size=N/A time=00:00:16.70 bitrate=N/A    frame=  838 fps=4.6 q=24.8 size=N/A time=00:00:16.76 bitrate=N/A    frame=  840 fps=4.6 q=24.8 size=N/A time=00:00:16.80 bitrate=N/A    frame=  843 fps=4.6 q=24.8 size=N/A time=00:00:16.86 bitrate=N/A    frame=  846 fps=4.6 q=24.8 size=N/A time=00:00:16.92 bitrate=N/A    frame=  848 fps=4.6 q=24.8 size=N/A time=00:00:16.96 bitrate=N/A    frame=  852 fps=4.6 q=24.8 size=N/A time=00:00:17.04 bitrate=N/A    frame=  856 fps=4.6 q=24.8 size=N/A time=00:00:17.12 bitrate=N/A    frame=  859 fps=4.6 q=24.8 size=N/A time=00:00:17.18 bitrate=N/A    frame=  862 fps=4.6 q=24.8 size=N/A time=00:00:17.24 bitrate=N/A    frame=  865 fps=4.6 q=24.8 size=N/A time=00:00:17.30 bitrate=N/A    frame=  868 fps=4.6 q=24.8 size=N/A time=00:00:17.36 bitrate=N/A    frame=  870 fps=4.6 q=24.8 size=N/A time=00:00:17.40 bitrate=N/A    frame=  873 fps=4.6 q=24.8 size=N/A time=00:00:17.46 bitrate=N/A    frame=  875 fps=4.6 q=24.8 size=N/A time=00:00:17.50 bitrate=N/A    frame=  878 fps=4.6 q=24.8 size=N/A time=00:00:17.56 bitrate=N/A    frame=  880 fps=4.6 q=24.8 size=N/A time=00:00:17.60 bitrate=N/A    frame=  882 fps=4.6 q=24.8 size=N/A time=00:00:17.64 bitrate=N/A    frame=  884 fps=4.6 q=24.8 size=N/A time=00:00:17.68 bitrate=N/A    frame=  886 fps=4.6 q=24.8 size=N/A time=00:00:17.72 bitrate=N/A    frame=  888 fps=4.6 q=24.8 size=N/A time=00:00:17.76 bitrate=N/A    frame=  890 fps=4.6 q=24.8 size=N/A time=00:00:17.80 bitrate=N/A    frame=  892 fps=4.6 q=24.8 size=N/A time=00:00:17.84 bitrate=N/A    frame=  894 fps=4.6 q=24.8 size=N/A time=00:00:17.88 bitrate=N/A    frame=  897 fps=4.6 q=24.8 size=N/A time=00:00:17.94 bitrate=N/A    frame=  899 fps=4.6 q=24.8 size=N/A time=00:00:17.98 bitrate=N/A    frame=  901 fps=4.6 q=24.8 size=N/A time=00:00:18.02 bitrate=N/A    frame=  904 fps=4.6 q=24.8 size=N/A time=00:00:18.08 bitrate=N/A    frame=  906 fps=4.6 q=24.8 size=N/A time=00:00:18.12 bitrate=N/A    frame=  908 fps=4.6 q=24.8 size=N/A time=00:00:18.16 bitrate=N/A    frame=  911 fps=4.6 q=24.8 size=N/A time=00:00:18.22 bitrate=N/A    frame=  913 fps=4.6 q=24.8 size=N/A time=00:00:18.26 bitrate=N/A    frame=  915 fps=4.6 q=24.8 size=N/A time=00:00:18.30 bitrate=N/A    frame=  918 fps=4.6 q=24.8 size=N/A time=00:00:18.36 bitrate=N/A    frame=  921 fps=4.6 q=24.8 size=N/A time=00:00:18.42 bitrate=N/A    frame=  923 fps=4.6 q=24.8 size=N/A time=00:00:18.46 bitrate=N/A    frame=  925 fps=4.6 q=24.8 size=N/A time=00:00:18.50 bitrate=N/A    frame=  927 fps=4.6 q=24.8 size=N/A time=00:00:18.54 bitrate=N/A    frame=  929 fps=4.6 q=24.8 size=N/A time=00:00:18.58 bitrate=N/A    frame=  931 fps=4.6 q=24.8 size=N/A time=00:00:18.62 bitrate=N/A    frame=  933 fps=4.6 q=24.8 size=N/A time=00:00:18.66 bitrate=N/A    frame=  935 fps=4.6 q=24.8 size=N/A time=00:00:18.70 bitrate=N/A    frame=  938 fps=4.6 q=24.8 size=N/A time=00:00:18.76 bitrate=N/A    frame=  941 fps=4.6 q=24.8 size=N/A time=00:00:18.82 bitrate=N/A    frame=  943 fps=4.6 q=24.8 size=N/A time=00:00:18.86 bitrate=N/A    frame=  946 fps=4.5 q=24.8 size=N/A time=00:00:18.92 bitrate=N/A    frame=  950 fps=4.6 q=24.8 size=N/A time=00:00:19.00 bitrate=N/A    frame=  953 fps=4.5 q=24.8 size=N/A time=00:00:19.06 bitrate=N/A    frame=  956 fps=4.6 q=24.8 size=N/A time=00:00:19.12 bitrate=N/A    frame=  959 fps=4.6 q=24.8 size=N/A time=00:00:19.18 bitrate=N/A    frame=  961 fps=4.5 q=24.8 size=N/A time=00:00:19.22 bitrate=N/A    frame=  963 fps=4.5 q=24.8 size=N/A time=00:00:19.26 bitrate=N/A    frame=  966 fps=4.5 q=24.8 size=N/A time=00:00:19.32 bitrate=N/A    frame=  969 fps=4.5 q=24.8 size=N/A time=00:00:19.38 bitrate=N/A    frame=  972 fps=4.5 q=24.8 size=N/A time=00:00:19.44 bitrate=N/A    frame=  975 fps=4.5 q=24.8 size=N/A time=00:00:19.50 bitrate=N/A    frame=  977 fps=4.5 q=24.8 size=N/A time=00:00:19.54 bitrate=N/A    frame=  979 fps=4.5 q=24.8 size=N/A time=00:00:19.58 bitrate=N/A    frame=  981 fps=4.5 q=24.8 size=N/A time=00:00:19.62 bitrate=N/A    frame=  983 fps=4.5 q=24.8 size=N/A time=00:00:19.66 bitrate=N/A    frame=  985 fps=4.5 q=24.8 size=N/A time=00:00:19.70 bitrate=N/A    frame=  988 fps=4.5 q=24.8 size=N/A time=00:00:19.76 bitrate=N/A    frame=  990 fps=4.5 q=24.8 size=N/A time=00:00:19.80 bitrate=N/A    frame=  992 fps=4.5 q=24.8 size=N/A time=00:00:19.84 bitrate=N/A    frame=  995 fps=4.5 q=24.8 size=N/A time=00:00:19.90 bitrate=N/A    frame=  997 fps=4.5 q=24.8 size=N/A time=00:00:19.94 bitrate=N/A    frame=  999 fps=4.5 q=24.8 size=N/A time=00:00:19.98 bitrate=N/A    frame= 1001 fps=4.5 q=24.8 size=N/A time=00:00:20.02 bitrate=N/A    frame= 1003 fps=4.5 q=24.8 size=N/A time=00:00:20.06 bitrate=N/A    frame= 1005 fps=4.5 q=24.8 size=N/A time=00:00:20.10 bitrate=N/A    frame= 1007 fps=4.5 q=24.8 size=N/A time=00:00:20.14 bitrate=N/A    frame= 1009 fps=4.5 q=24.8 size=N/A time=00:00:20.18 bitrate=N/A    frame= 1012 fps=4.5 q=24.8 size=N/A time=00:00:20.24 bitrate=N/A    frame= 1015 fps=4.5 q=24.8 size=N/A time=00:00:20.30 bitrate=N/A    frame= 1018 fps=4.5 q=24.8 size=N/A time=00:00:20.36 bitrate=N/A    frame= 1020 fps=4.5 q=24.8 size=N/A time=00:00:20.40 bitrate=N/A    frame= 1022 fps=4.5 q=24.8 size=N/A time=00:00:20.44 bitrate=N/A    frame= 1025 fps=4.5 q=24.8 size=N/A time=00:00:20.50 bitrate=N/A    frame= 1027 fps=4.5 q=24.8 size=N/A time=00:00:20.54 bitrate=N/A    frame= 1030 fps=4.5 q=24.8 size=N/A time=00:00:20.60 bitrate=N/A    frame= 1033 fps=4.5 q=24.8 size=N/A time=00:00:20.66 bitrate=N/A    frame= 1035 fps=4.5 q=24.8 size=N/A time=00:00:20.70 bitrate=N/A    frame= 1036 fps=4.5 q=24.8 Lsize=N/A time=00:00:20.72 bitrate=N/A    
video:925422kB audio:0kB subtitle:0kB other streams:0kB global headers:0kB muxing overhead: unknown
+ turkic load DJI_0041_30m_szarvasragas_homokmegy_20180603_napos_napraforgo_T3 /home/horvathandras/vatic/vatic/videos/DJI_0041_30m_szarvasragas_homokmegy_20180603_napos_napraforgo_T3 $'Pozit\303\255vROI' $'Negat\303\255vROI' $'T\303\272r\303\241s' '~Friss' '~1-2Hetes' '~Régebbi' '~Egyéb1' '~Egyéb2' '~Egyéb3' $'R\303\241g\303\241s' '~Friss' '~1-2Hetes' '~Régebbi' '~Egyéb1' '~Egyéb2' '~Egyéb3' $'T\303\266r\303\251s' '~Friss' '~1-2Hetes' '~Régebbi' '~Egyéb1' '~Egyéb2' '~Egyéb3' $'Tapos\303\241s' '~Friss' '~1-2Hetes' '~Régebbi' '~Egyéb1' '~Egyéb2' '~Egyéb3' $'Eg\303\251szs\303\251gesN\303\266v\303\251ny' $'Egy\303\251b1' $'Egy\303\251b2' $'Egy\303\251b3' $'Egy\303\251b4' $'Egy\303\251b5' Bizonytalan $'M\305\261vel\305\221\303\272t' $'Gktapos\303\241s' $'Vet\305\221hiba' $'Sz\303\251ld\303\266nt\303\251s' $'J\303\251gk\303\241r' $'Belv\303\255z' $'Asz\303\241ly' $'Er\303\263zi\303\263' $'Egyszik\305\261Gyom' $'K\303\251tszik\305\261Gyom' $'Egy\303\251bN\303\266vv\303\251delmiPR' --offline --title '$filenameNoDot Video' --length 1000 --description 'vatic annotation'
+ turkic publish --offline
+ mkdir /home/horvathandras/vatic/vatic/public/videothumbnails/DJI_0041_30m_szarvasragas_homokmegy_20180603_napos_napraforgo_T3
+ cp /home/horvathandras/vatic/vatic/videos/DJI_0041_30m_szarvasragas_homokmegy_20180603_napos_napraforgo_T3/0/0/31.jpg /home/horvathandras/vatic/vatic/public/videothumbnails/DJI_0041_30m_szarvasragas_homokmegy_20180603_napos_napraforgo_T3/thumb.jpg
